<?xml version="1.0" standalone="no"?>
<!-- Generator: Gravit.io -->
<svg xmlns="http://www.w3.org/2000/svg" xmlns:xlink="http://www.w3.org/1999/xlink" style="isolation:isolate" viewBox="465.678 476.637 169.322 225.71" width="169.322" height="225.71">
	<g id="CABECA">
		<g id="ORELHA DIREITA">
			<path d="M 624.587 591.844 L 624.587 591.844 C 631.784 593.479 636.3 600.648 634.666 607.845 L 631.091 623.587 C 629.457 630.784 622.287 635.3 615.091 633.666 L 615.091 633.666 C 607.894 632.032 603.378 624.862 605.012 617.665 L 608.586 601.923 C 610.221 594.726 617.39 590.21 624.587 591.844 Z" style="stroke:none;fill:#EFA380;stroke-miterlimit:10;" />
			<clipPath id="_clipPath_boFGTvxfebOf7dOaVLIOvIeHSPsr4YOp">
				<path d="M 624.587 591.844 L 624.587 591.844 C 631.784 593.479 636.3 600.648 634.666 607.845 L 631.091 623.587 C 629.457 630.784 622.287 635.3 615.091 633.666 L 615.091 633.666 C 607.894 632.032 603.378 624.862 605.012 617.665 L 608.586 601.923 C 610.221 594.726 617.39 590.21 624.587 591.844 Z" style="stroke:none;fill:#EFA380;stroke-miterlimit:10;" />
			</clipPath>
			<g clip-path="url(#_clipPath_boFGTvxfebOf7dOaVLIOvIeHSPsr4YOp)">
				<defs>
					<filter id="JsHPUj03wr1yVxVv6ZbrwidIEA2MjefS" x="601.669" y="582.331" width="44.732" height="61.149" filterUnits="userSpaceOnUse">
						<feGaussianBlur xmlns="http://www.w3.org/2000/svg" stdDeviation="1.6315714438788307" />
					</filter>
				</defs>
				<g filter="url(#JsHPUj03wr1yVxVv6ZbrwidIEA2MjefS)">
					<path d=" M 608.1 638.179 Q 618.248 603.955 625.117 601.331 C 629.989 599.47 635.327 601.146 641.101 606.329 L 636.948 587.631 L 606.969 590.703 L 608.1 638.179 Z " id="Path" fill="none" vector-effect="non-scaling-stroke" stroke-width="1" stroke="rgb(99,71,81)" stroke-linejoin="miter" stroke-linecap="square" stroke-miterlimit="3" />
				</g>
				<defs>
					<filter id="g6v7CYq1BveNnzmZnp75n9RmRIdqUDky" x="601.607" y="602.624" width="34.058" height="32.011" filterUnits="userSpaceOnUse">
						<feGaussianBlur xmlns="http://www.w3.org/2000/svg" stdDeviation="2.146804531419514" />
					</filter>
					<linearGradient id="_lgradient_63" x1="0.5000000000000001" y1="1" x2="0.49999999999999994" y2="0">
						<stop offset="0%" style="stop-color:#5A4041" />
						<stop offset="100%" style="stop-color:#F6CBA7" />
					</linearGradient>
					<linearGradient id="_lgradient_64" x1="0.5000000000000001" y1="1" x2="0.49999999999999994" y2="0">
						<stop offset="0%" style="stop-color:#5A4041" />
						<stop offset="100%" style="stop-color:#F6CBA7" />
					</linearGradient>
				</defs>
				<g filter="url(#g6v7CYq1BveNnzmZnp75n9RmRIdqUDky)" style="mix-blend-mode:normal;" opacity="0.56">
					<path d="M 623.751 608.667 L 625.541 609.528 C 630.501 611.914 632.144 617.631 629.209 622.286 L 627.827 624.478 C 624.891 629.133 618.481 630.976 613.521 628.59 L 611.731 627.729 C 606.771 625.344 605.128 619.627 608.064 614.972 L 609.446 612.78 C 612.381 608.124 618.792 606.282 623.751 608.667 Z" style="stroke:none;fill:url(#_lgradient_64);stroke-miterlimit:10;" />
				</g>
				<defs>
					<filter id="umw6A2Car6d4NuOzUVK95vQgPpFUIVqj" x="580.504" y="569.419" width="53.49" height="74.978" filterUnits="userSpaceOnUse">
						<feGaussianBlur xmlns="http://www.w3.org/2000/svg" stdDeviation="2.146804531419514" />
					</filter>
				</defs>
				<g filter="url(#umw6A2Car6d4NuOzUVK95vQgPpFUIVqj)">
					<path d=" M 599.751 580.074 C 607.939 567.822 617.921 576.833 628.994 594.119 C 614.269 592.96 611.381 604.427 616.573 639.397 L 585.504 630.835 L 599.751 580.074 Z " id="Path" fill="rgb(192,158,137)" />
				</g>
			</g>
			<g style="mix-blend-mode:multiply;">
				<clipPath id="_clipPath_c2Zm90tAJCNWle08FJynXJyevIx5hupi">
					<path d="M 624.587 591.844 L 624.587 591.844 C 631.784 593.479 636.3 600.648 634.666 607.845 L 631.091 623.587 C 629.457 630.784 622.287 635.3 615.091 633.666 L 615.091 633.666 C 607.894 632.032 603.378 624.862 605.012 617.665 L 608.586 601.923 C 610.221 594.726 617.39 590.21 624.587 591.844 Z" style="stroke:none;fill:#FFFFFF;stroke-miterlimit:10;" />
				</clipPath>
				<g clip-path="url(#_clipPath_c2Zm90tAJCNWle08FJynXJyevIx5hupi)">
					<defs>
						<filter id="WkQuWgxEfn9mn46HyOrwll7DtIcO37He" x="589.604" y="551.969" width="83.187" height="108.862" filterUnits="userSpaceOnUse">
							<feGaussianBlur xmlns="http://www.w3.org/2000/svg" stdDeviation="10.218789569556888" />
						</filter>
					</defs>
					<g filter="url(#WkQuWgxEfn9mn46HyOrwll7DtIcO37He)">
						<path d=" M 648.991 584.503 C 645.779 570.169 633.646 575.134 617.687 587.473 C 631.421 591.518 630.103 603.269 613.404 634.228 L 644.48 637.031 L 648.991 584.503 Z " id="Path" fill="rgb(99,0,221)" />
					</g>
				</g>
			</g>
			<g style="mix-blend-mode:overlay;">
				<clipPath id="_clipPath_vHfkKj2Up3YpIqrZDDk2LdUcXOjQx9AO">
					<path d="M 624.587 591.844 L 624.587 591.844 C 631.784 593.479 636.3 600.648 634.666 607.845 L 631.091 623.587 C 629.457 630.784 622.287 635.3 615.091 633.666 L 615.091 633.666 C 607.894 632.032 603.378 624.862 605.012 617.665 L 608.586 601.923 C 610.221 594.726 617.39 590.21 624.587 591.844 Z" style="stroke:none;fill:#FFFFFF;stroke-miterlimit:10;" />
				</clipPath>
				<g clip-path="url(#_clipPath_vHfkKj2Up3YpIqrZDDk2LdUcXOjQx9AO)">
					<defs>
						<filter id="lY4j6vctCug7i8ke7XASNAxqg9cwa16F" x="603.191" y="570.079" width="58.082" height="62.309" filterUnits="userSpaceOnUse">
							<feGaussianBlur xmlns="http://www.w3.org/2000/svg" stdDeviation="2.447357165818246" />
						</filter>
					</defs>
					<g filter="url(#lY4j6vctCug7i8ke7XASNAxqg9cwa16F)">
						<path d=" M 626.394 576.91 C 615.691 572.098 611.228 583.142 608.891 600.541 C 619.824 592.817 626.162 599.56 634.698 626.688 L 655.573 606.073 L 626.394 576.91 Z " id="Path" fill="rgb(167,167,255)" />
					</g>
				</g>
			</g>
		</g>
		<g id="ORELHA ESQUERDA">
			<path d="M 476.091 591.844 L 476.091 591.844 C 468.894 593.479 464.378 600.648 466.012 607.845 L 469.586 623.587 C 471.221 630.784 478.39 635.3 485.587 633.666 L 485.587 633.666 C 492.784 632.032 497.3 624.862 495.666 617.665 L 492.091 601.923 C 490.457 594.726 483.287 590.21 476.091 591.844 Z" style="stroke:none;fill:#EAA17F;stroke-miterlimit:10;" />
			<clipPath id="_clipPath_BInWEXZbTgABxc55xPmMGD6c1ZHRa6ZD">
				<path d="M 476.091 591.844 L 476.091 591.844 C 468.894 593.479 464.378 600.648 466.012 607.845 L 469.586 623.587 C 471.221 630.784 478.39 635.3 485.587 633.666 L 485.587 633.666 C 492.784 632.032 497.3 624.862 495.666 617.665 L 492.091 601.923 C 490.457 594.726 483.287 590.21 476.091 591.844 Z" style="stroke:none;fill:#EAA17F;stroke-miterlimit:10;" />
			</clipPath>
			<g clip-path="url(#_clipPath_BInWEXZbTgABxc55xPmMGD6c1ZHRa6ZD)">
				<defs>
					<filter id="W7wAgF9pekKHLHILCYvEKlETOojjYOFb" x="454.277" y="582.331" width="44.732" height="61.149" filterUnits="userSpaceOnUse">
						<feGaussianBlur xmlns="http://www.w3.org/2000/svg" stdDeviation="1.6315714438788307" />
					</filter>
				</defs>
				<g filter="url(#W7wAgF9pekKHLHILCYvEKlETOojjYOFb)">
					<path d=" M 492.578 638.179 Q 482.43 603.955 475.56 601.331 C 470.689 599.47 465.351 601.146 459.577 606.329 L 463.729 587.631 L 493.709 590.703 L 492.578 638.179 Z " id="Path" fill="none" vector-effect="non-scaling-stroke" stroke-width="1" stroke="rgb(99,71,81)" stroke-linejoin="miter" stroke-linecap="square" stroke-miterlimit="3" />
				</g>
				<defs>
					<filter id="rkmbqvvmQWRXjdkbyhyaJkgw8c3FVLuE" x="465.013" y="602.624" width="34.058" height="32.011" filterUnits="userSpaceOnUse">
						<feGaussianBlur xmlns="http://www.w3.org/2000/svg" stdDeviation="2.146804531419514" />
					</filter>
					<linearGradient id="_lgradient_65" x1="0.5" y1="1" x2="0.49999999999999983" y2="0">
						<stop offset="0%" style="stop-color:#5A4041" />
						<stop offset="100%" style="stop-color:#F6CBA7" />
					</linearGradient>
					<linearGradient id="_lgradient_66" x1="0.5" y1="1" x2="0.49999999999999983" y2="0">
						<stop offset="0%" style="stop-color:#5A4041" />
						<stop offset="100%" style="stop-color:#F6CBA7" />
					</linearGradient>
				</defs>
				<g filter="url(#rkmbqvvmQWRXjdkbyhyaJkgw8c3FVLuE)" style="mix-blend-mode:normal;" opacity="0.56">
					<path d="M 476.926 608.667 L 475.136 609.528 C 470.177 611.914 468.533 617.631 471.469 622.286 L 472.851 624.478 C 475.787 629.133 482.197 630.976 487.157 628.59 L 488.946 627.729 C 493.906 625.344 495.55 619.627 492.614 614.972 L 491.232 612.78 C 488.296 608.124 481.886 606.282 476.926 608.667 Z" style="stroke:none;fill:url(#_lgradient_66);stroke-miterlimit:10;" />
				</g>
				<defs>
					<filter id="qQ8BtVYgGNQQE4DO45iTkwI9NYQvdnZ5" x="466.683" y="569.419" width="53.49" height="74.978" filterUnits="userSpaceOnUse">
						<feGaussianBlur xmlns="http://www.w3.org/2000/svg" stdDeviation="2.146804531419514" />
					</filter>
				</defs>
				<g filter="url(#qQ8BtVYgGNQQE4DO45iTkwI9NYQvdnZ5)">
					<path d=" M 500.927 580.074 C 492.739 567.822 482.757 576.833 471.683 594.119 C 486.408 592.96 489.296 604.427 484.105 639.397 L 515.173 630.835 L 500.927 580.074 Z " id="Path" fill="rgb(192,158,137)" />
				</g>
			</g>
			<g style="mix-blend-mode:multiply;">
				<clipPath id="_clipPath_2lMYKKzVQGquMYA3uP1GG0yoTGyAQwfL">
					<path d="M 476.091 591.844 L 476.091 591.844 C 468.894 593.479 464.378 600.648 466.012 607.845 L 469.586 623.587 C 471.221 630.784 478.39 635.3 485.587 633.666 L 485.587 633.666 C 492.784 632.032 497.3 624.862 495.666 617.665 L 492.091 601.923 C 490.457 594.726 483.287 590.21 476.091 591.844 Z" style="stroke:none;fill:#FFFFFF;stroke-miterlimit:10;" />
				</clipPath>
				<g clip-path="url(#_clipPath_2lMYKKzVQGquMYA3uP1GG0yoTGyAQwfL)">
					<defs>
						<filter id="0x1RNiyQ1R5LrGXUJ5nkNbAybHojZSgS" x="427.887" y="551.969" width="83.187" height="108.862" filterUnits="userSpaceOnUse">
							<feGaussianBlur xmlns="http://www.w3.org/2000/svg" stdDeviation="10.218789569556888" />
						</filter>
					</defs>
					<g filter="url(#0x1RNiyQ1R5LrGXUJ5nkNbAybHojZSgS)">
						<path d=" M 451.687 584.503 C 454.899 570.169 467.031 575.134 482.99 587.473 C 469.256 591.518 470.575 603.269 487.274 634.228 L 456.198 637.031 L 451.687 584.503 Z " id="Path" fill="rgb(157,130,169)" />
					</g>
				</g>
			</g>
			<g style="mix-blend-mode:overlay;">
				<clipPath id="_clipPath_EN7lKForWuMLlfDGtvZDk2FXmLIoRhon">
					<path d="M 476.091 591.844 L 476.091 591.844 C 468.894 593.479 464.378 600.648 466.012 607.845 L 469.586 623.587 C 471.221 630.784 478.39 635.3 485.587 633.666 L 485.587 633.666 C 492.784 632.032 497.3 624.862 495.666 617.665 L 492.091 601.923 C 490.457 594.726 483.287 590.21 476.091 591.844 Z" style="stroke:none;fill:#FFFFFF;stroke-miterlimit:10;" />
				</clipPath>
				<g clip-path="url(#_clipPath_EN7lKForWuMLlfDGtvZDk2FXmLIoRhon)">
					<defs>
						<filter id="WrRXehzaw5CSS2xP3IyjcHaXzqGWNz6o" x="439.405" y="570.079" width="58.082" height="62.309" filterUnits="userSpaceOnUse">
							<feGaussianBlur xmlns="http://www.w3.org/2000/svg" stdDeviation="2.447357165818246" />
						</filter>
					</defs>
					<g opacity="0.54" filter="url(#WrRXehzaw5CSS2xP3IyjcHaXzqGWNz6o)">
						<path d=" M 474.284 576.91 C 484.986 572.098 489.449 583.142 491.786 600.541 C 480.853 592.817 474.516 599.56 465.98 626.688 L 445.105 606.073 L 474.284 576.91 Z " id="Path" fill="rgb(255,255,255)" />
					</g>
				</g>
			</g>
		</g>
		<defs>
			<filter id="Y1JJEiOdpOUxeRv6lgui5AC42NSeho4r" x="476.4" y="476.637" width="148.6" height="225.71" filterUnits="userSpaceOnUse">
				<feGaussianBlur xmlns="http://www.w3.org/2000/svg" stdDeviation="0" />
			</filter>
		</defs>
		<g filter="url(#Y1JJEiOdpOUxeRv6lgui5AC42NSeho4r)">
			<path d=" M 482.989 515.623 Q 475.139 545.087 476.641 573.076 Q 481.721 585.013 479.815 595.647 Q 477.909 606.282 485.105 627.452 C 492.301 648.622 485.695 655.671 502.033 672.594 C 518.37 689.517 518.893 687.421 523.192 694.139 C 527.492 700.857 540.931 702.248 550.7 702.346 L 550.7 476.637 L 550.7 476.637 Q 510.288 481.21 482.989 515.623 Z  M 618.411 515.623 Q 626.261 545.087 624.759 573.076 Q 619.679 585.013 621.585 595.647 Q 623.491 606.282 616.295 627.452 C 609.099 648.622 615.705 655.671 599.367 672.594 C 583.03 689.517 582.507 687.421 578.208 694.139 C 573.908 700.857 560.469 702.248 550.7 702.346 L 550.7 476.637 Q 591.112 481.21 618.411 515.623 Z " fill-rule="evenodd" id="ROSTO" fill="rgb(247,204,167)" />
			<clipPath id="_clipPath_RfVvX0YXTeFFLTBcEBZvL0PrErzl6CBu">
				<path d=" M 482.989 515.623 Q 475.139 545.087 476.641 573.076 Q 481.721 585.013 479.815 595.647 Q 477.909 606.282 485.105 627.452 C 492.301 648.622 485.695 655.671 502.033 672.594 C 518.37 689.517 518.893 687.421 523.192 694.139 C 527.492 700.857 540.931 702.248 550.7 702.346 L 550.7 476.637 L 550.7 476.637 Q 510.288 481.21 482.989 515.623 Z  M 618.411 515.623 Q 626.261 545.087 624.759 573.076 Q 619.679 585.013 621.585 595.647 Q 623.491 606.282 616.295 627.452 C 609.099 648.622 615.705 655.671 599.367 672.594 C 583.03 689.517 582.507 687.421 578.208 694.139 C 573.908 700.857 560.469 702.248 550.7 702.346 L 550.7 476.637 Q 591.112 481.21 618.411 515.623 Z " fill-rule="evenodd" id="ROSTO" fill="rgb(247,204,167)" />
			</clipPath>
			<g clip-path="url(#_clipPath_RfVvX0YXTeFFLTBcEBZvL0PrErzl6CBu)">
				<defs>
					<filter id="BSXVjhyfy2fDx5M7it7LsdV9Z3Fkg1Wj" x="448.81" y="450.233" width="151.456" height="274.413" filterUnits="userSpaceOnUse">
						<feGaussianBlur xmlns="http://www.w3.org/2000/svg" stdDeviation="9.574748210131034" />
					</filter>
				</defs>
				<g filter="url(#BSXVjhyfy2fDx5M7it7LsdV9Z3Fkg1Wj)">
					<path d=" M 577.966 476.637 Q 514.338 515.213 508.956 529.986 C 503.575 544.76 501.338 559.944 503.908 565.895 C 506.477 571.845 498.739 593.185 498.618 599.751 C 498.497 606.317 503.756 602.741 506.024 623.348 C 508.291 643.955 507.565 656.677 515.545 664.386 Q 523.526 672.095 532.473 702.346 L 471.11 660.282 L 478.516 487.922 L 562.097 472.533 L 577.966 476.637 Z " id="Path" fill="rgb(168,118,107)" />
				</g>
				<defs>
					<filter id="NyG0V6oaiKIUcgw01JOG8RPIY01lWRTm" x="508.057" y="450.233" width="151.456" height="274.413" filterUnits="userSpaceOnUse">
						<feGaussianBlur xmlns="http://www.w3.org/2000/svg" stdDeviation="9.574748210131034" />
					</filter>
				</defs>
				<g filter="url(#NyG0V6oaiKIUcgw01JOG8RPIY01lWRTm)">
					<path d=" M 530.357 476.637 Q 593.986 515.213 599.367 529.986 C 604.749 544.76 606.985 559.944 604.416 565.895 C 601.847 571.845 609.585 593.185 609.706 599.751 C 609.827 606.317 604.567 602.741 602.3 623.348 C 600.033 643.955 600.758 656.677 592.778 664.386 Q 584.798 672.095 575.85 702.346 L 637.213 660.282 L 629.808 487.922 L 546.227 472.533 L 530.357 476.637 Z " id="Path" fill="rgb(168,118,107)" />
				</g>
				<defs>
					<filter id="U0ZuG3QWjg63FZLQ1NnU4RwOORenzzUI" x="480.55" y="450.233" width="151.456" height="274.413" filterUnits="userSpaceOnUse">
						<feGaussianBlur xmlns="http://www.w3.org/2000/svg" stdDeviation="9.574748210131034" />
					</filter>
				</defs>
				<g filter="url(#U0ZuG3QWjg63FZLQ1NnU4RwOORenzzUI)">
					<path d=" M 502.85 476.637 Q 566.478 515.213 571.86 529.986 C 577.241 544.76 579.478 559.944 576.908 565.895 C 574.339 571.845 582.077 593.185 582.198 599.751 C 582.319 606.317 577.06 602.741 574.792 623.348 C 572.525 643.955 573.251 656.677 565.271 664.386 Q 557.29 672.095 548.343 702.346 L 609.706 660.282 L 602.3 487.922 L 518.719 472.533 L 502.85 476.637 Z " id="Path" fill="rgb(226,163,121)" />
				</g>
				<defs>
					<filter id="Ab6oPb3TkgxmfCGi9gdexLAIrjGAx1hu" x="470.499" y="450.233" width="151.456" height="274.413" filterUnits="userSpaceOnUse">
						<feGaussianBlur xmlns="http://www.w3.org/2000/svg" stdDeviation="9.574748210131034" />
					</filter>
				</defs>
				<g filter="url(#Ab6oPb3TkgxmfCGi9gdexLAIrjGAx1hu)">
					<path d=" M 599.655 476.637 Q 536.026 515.213 530.645 529.986 C 525.264 544.76 523.027 559.944 525.596 565.895 C 528.166 571.845 520.427 593.185 520.306 599.751 C 520.185 606.317 525.445 602.741 527.712 623.348 C 529.979 643.955 529.254 656.677 537.234 664.386 Q 545.214 672.095 554.162 702.346 L 492.799 660.282 L 500.205 487.922 L 583.785 472.533 L 599.655 476.637 Z " id="Path" fill="rgb(226,163,121)" />
				</g>
				<defs>
					<filter id="5XVpWNDeLbavjCNjyW0yPeoAMWHP4Uo6" x="466.97" y="560.637" width="166.977" height="88" filterUnits="userSpaceOnUse">
						<feGaussianBlur xmlns="http://www.w3.org/2000/svg" stdDeviation="4.722969969122931" />
					</filter>
				</defs>
				<g filter="url(#5XVpWNDeLbavjCNjyW0yPeoAMWHP4Uo6)">
					<linearGradient id="_lgradient_67" x1="0.5" y1="1" x2="0.5000000000000001" y2="0" gradientTransform="matrix(144.977,0,0,66,477.97,571.637)" gradientUnits="userSpaceOnUse">
						<stop offset="5.6521739130434785%" stop-opacity="1" style="stop-color:rgb(255,173,136)" />
						<stop offset="100%" stop-opacity="1" style="stop-color:rgb(140,101,83)" />
					</linearGradient>
					<path d=" M 550.459 587.351 Q 530.884 581.448 516.058 573.182 Q 501.038 564.807 477.97 601.828 Q 484.644 628.845 499.13 637.637 Q 527.535 634.012 535.102 621.523 Q 542.434 609.42 550.459 607.323 Q 558.483 609.42 565.816 621.523 Q 573.383 634.012 601.788 637.637 Q 616.274 628.845 622.947 601.828 Q 599.879 564.807 584.86 573.182 Q 570.034 581.448 550.459 587.351 Z " fill-rule="evenodd" id="Compound Shape" fill="url(#_lgradient_67)" />
				</g>
				<defs>
					<filter id="34qYSsUqfZ4PVTzOk6pDrDKlocVuNMAg" x="459.42" y="458.389" width="182.077" height="147.011" filterUnits="userSpaceOnUse">
						<feGaussianBlur xmlns="http://www.w3.org/2000/svg" stdDeviation="2.7479098002169784" />
					</filter>
				</defs>
				<g opacity="0.57" filter="url(#34qYSsUqfZ4PVTzOk6pDrDKlocVuNMAg)">
					<path d=" M 517 512 C 549.469 530.357 571.544 517.857 583.785 511 C 598.035 503.018 606.288 532.375 607 556 C 614.953 561.049 619.63 574.392 621 596 L 635.098 533.481 L 616.295 490.152 L 550.7 464.789 L 476.641 496.493 L 465.82 540.879 L 478.516 599 C 481.504 576.235 485.675 562.245 491 557 C 497.391 550.705 490.696 497.129 517 512 Z " id="Path" fill="rgb(82,58,40)" />
				</g>
			</g>
		</g>
		<defs>
			<filter id="Ejv17L17vKa6WrxcB5txn0pjOxWOqkfM" x="559.4" y="568.756" width="53.231" height="19.343" filterUnits="userSpaceOnUse">
				<feGaussianBlur xmlns="http://www.w3.org/2000/svg" stdDeviation="0.42936090628390283" />
			</filter>
		</defs>
		<g filter="url(#Ejv17L17vKa6WrxcB5txn0pjOxWOqkfM)">
			<path d=" M 562.637 586.519 L 560.408 587.099 Q 560.276 585.802 562.348 580.81 C 564.421 575.819 591.699 568.215 598.437 570.03 Q 605.175 571.846 611.631 583.056 Q 605.512 579.007 598.437 577.217 Q 591.363 575.427 598.437 577.217 L 567.832 585.17 Q 567.92 582.113 568.169 578.427 L 568.169 578.427 Q 567.495 579.477 566.725 585.457 L 564.539 586.025 Q 564.737 584.093 565.057 581.948 L 565.057 581.948 Q 563.909 582.76 562.637 586.519 Z " fill-rule="evenodd" id="SOBRANCELHA DIREITA" fill="rgb(83,59,41)" />
		</g>
		<defs>
			<filter id="Gu1SjhYtCNBdtjrIKrYwwSsankBcinkc" x="490.169" y="568.756" width="53.231" height="19.343" filterUnits="userSpaceOnUse">
				<feGaussianBlur xmlns="http://www.w3.org/2000/svg" stdDeviation="0.42936090628390283" />
			</filter>
		</defs>
		<g filter="url(#Gu1SjhYtCNBdtjrIKrYwwSsankBcinkc)">
			<path d=" M 540.163 586.519 L 542.392 587.099 Q 542.524 585.802 540.452 580.81 C 538.379 575.819 511.101 568.215 504.363 570.03 Q 497.625 571.846 491.169 583.056 Q 497.288 579.007 504.363 577.217 Q 511.437 575.427 504.363 577.217 L 534.968 585.17 Q 534.88 582.113 534.631 578.427 L 534.631 578.427 Q 535.305 579.477 536.075 585.457 L 538.261 586.025 Q 538.063 584.093 537.743 581.948 L 537.743 581.948 Q 538.891 582.76 540.163 586.519 Z " fill-rule="evenodd" id="SOBRANCELHA ESQUERDA" fill="rgb(83,59,41)" />
		</g>
		<g id="BOCA">
			<defs>
				<filter id="7DnQIdsY1AuKUNv6UvYQW5vvKS2Mk3eL" x="541.491" y="642.495" width="16.293" height="19.399" filterUnits="userSpaceOnUse">
					<feGaussianBlur xmlns="http://www.w3.org/2000/svg" stdDeviation="1.5027631719936598" />
				</filter>
				<linearGradient id="_lgradient_68" x1="0" y1="0.5" x2="1" y2="0.5">
					<stop offset="39.130434782608695%" style="stop-color:#FFDAC0" />
					<stop offset="100%" style="stop-color:#DDAA8E" />
				</linearGradient>
			</defs>
			<g filter="url(#7DnQIdsY1AuKUNv6UvYQW5vvKS2Mk3eL)">
				<path d="M 549.571 645.996 L 549.571 645.996 C 547.013 646.023 544.961 648.324 544.991 651.13 L 545.015 653.359 C 545.045 656.166 547.146 658.422 549.704 658.395 L 549.704 658.395 C 552.261 658.367 554.314 656.067 554.284 653.26 L 554.26 651.031 C 554.23 648.225 552.129 645.968 549.571 645.996 Z" style="stroke:none;fill:url(#_lgradient_68);stroke-miterlimit:10;" />
			</g>
			<radialGradient id="_rgradient_14" fx="0.5" fy="0.5" cx="0.5" cy="0.5" r="0.5">
				<stop offset="2.1739130434782608%" stop-opacity="1" style="stop-color:rgb(181,39,0)" />
				<stop offset="100%" stop-opacity="0" style="stop-color:rgb(248,208,180)" />
			</radialGradient>
			<path d=" M 512.744 658.4 C 532.663 665.154 557.626 670.604 585.666 658.621" id="Path" fill="none" vector-effect="non-scaling-stroke" stroke-width="6" stroke="url(#_rgradient_14)" stroke-linejoin="miter" stroke-linecap="square" stroke-miterlimit="3" />
			<defs>
				<filter id="B5oJ6QL6ASoZZtP2YelccfmJehPxCulD" x="521.328" y="661.45" width="54.938" height="29.409" filterUnits="userSpaceOnUse">
					<feGaussianBlur xmlns="http://www.w3.org/2000/svg" stdDeviation="4.5512256066093695" />
				</filter>
			</defs>
			<g filter="url(#B5oJ6QL6ASoZZtP2YelccfmJehPxCulD)">
				<path d=" M 534.178 675.612 C 545.49 679.192 555.245 678.765 563.416 674.3" id="Path" fill="none" vector-effect="non-scaling-stroke" stroke-width="1.5" stroke="rgb(83,59,41)" stroke-linejoin="miter" stroke-linecap="square" stroke-miterlimit="3" />
			</g>
			<defs>
				<filter id="L3czH25lfZfGXdsmFG1bO1DV3KbWVqEC" x="522.557" y="656.038" width="54.251" height="19.119" filterUnits="userSpaceOnUse">
					<feGaussianBlur xmlns="http://www.w3.org/2000/svg" stdDeviation="2.447357165818246" />
				</filter>
			</defs>
			<g filter="url(#L3czH25lfZfGXdsmFG1bO1DV3KbWVqEC)">
				<path d=" M 530.507 664.397 C 544.556 667.948 558.691 668.474 568.858 663.988" id="Path" fill="none" vector-effect="non-scaling-stroke" stroke-width="1.5" stroke="rgb(253,215,189)" stroke-linejoin="miter" stroke-linecap="square" stroke-miterlimit="3" />
			</g>
			<defs>
				<filter id="y6Hn7ctKocwpExGBbzCPGcOe4VsgZIbn" x="522.557" y="656.038" width="54.251" height="19.119" filterUnits="userSpaceOnUse">
					<feGaussianBlur xmlns="http://www.w3.org/2000/svg" stdDeviation="2.447357165818246" />
				</filter>
			</defs>
			<g filter="url(#y6Hn7ctKocwpExGBbzCPGcOe4VsgZIbn)">
				<path d=" M 530.507 664.397 C 544.556 667.948 558.691 668.474 568.858 663.988" id="Path" fill="none" vector-effect="non-scaling-stroke" stroke-width="1.5" stroke="rgb(253,215,189)" stroke-linejoin="miter" stroke-linecap="square" stroke-miterlimit="3" />
			</g>
		</g>
		<g id="NARIZ">
			<defs>
				<filter id="7nhywsBKx4OKZMA5WXFbWRECKIwmBNDw" x="531.176" y="583.012" width="39.047" height="70.388" filterUnits="userSpaceOnUse">
					<feGaussianBlur xmlns="http://www.w3.org/2000/svg" stdDeviation="3.8213120659267354" />
				</filter>
				<radialGradient id="_rgradient_15" fx="50%" fy="50%" cx="50%" cy="50%" r="50%">
					<stop offset="51.30434782608696%" style="stop-color:#FFDBBD" />
					<stop offset="97.3913043478261%" style="stop-color:#C79077" />
				</radialGradient>
			</defs>
			<g filter="url(#7nhywsBKx4OKZMA5WXFbWRECKIwmBNDw)">
				<path d="M 550.7 591.912 L 550.7 591.912 C 556.563 591.912 561.324 596.932 561.324 603.115 L 561.324 633.297 C 561.324 639.48 556.563 644.5 550.7 644.5 L 550.7 644.5 C 544.837 644.5 540.076 639.48 540.076 633.297 L 540.076 603.115 C 540.076 596.932 544.837 591.912 550.7 591.912 Z" style="stroke:none;fill:url(#_rgradient_15);stroke-miterlimit:10;" />
			</g>
			<defs>
				<filter id="dSfx8Gx6ymIgDFP9AVp2UfZbBg19CErv" x="528.404" y="620.3" width="44.593" height="29.9" filterUnits="userSpaceOnUse">
					<feGaussianBlur xmlns="http://www.w3.org/2000/svg" stdDeviation="2.447357165818246" />
				</filter>
			</defs>
			<g filter="url(#dSfx8Gx6ymIgDFP9AVp2UfZbBg19CErv)">
				<path d="M 542.409 626 L 558.991 626 C 563.575 626 567.296 629.721 567.296 634.305 L 567.296 636.195 C 567.296 640.779 563.575 644.5 558.991 644.5 L 542.409 644.5 C 537.825 644.5 534.104 640.779 534.104 636.195 L 534.104 634.305 C 534.104 629.721 537.825 626 542.409 626 Z" style="stroke:none;fill:#D89D7C;stroke-miterlimit:10;" />
			</g>
			<defs>
				<filter id="rGciSdVHK1U3Q40sSRM8JOQ9ZjQat18l" x="534.776" y="621.4" width="31.847" height="25.7" filterUnits="userSpaceOnUse">
					<feGaussianBlur xmlns="http://www.w3.org/2000/svg" stdDeviation="1.9750601689059528" />
				</filter>
			</defs>
			<g filter="url(#rGciSdVHK1U3Q40sSRM8JOQ9ZjQat18l)">
				<path d="M 547.626 626 L 553.774 626 C 558.327 626 562.024 629.697 562.024 634.25 L 562.024 634.25 C 562.024 638.803 558.327 642.5 553.774 642.5 L 547.626 642.5 C 543.073 642.5 539.376 638.803 539.376 634.25 L 539.376 634.25 C 539.376 629.697 543.073 626 547.626 626 Z" style="stroke:none;fill:#F7CBA7;stroke-miterlimit:10;" />
			</g>
		</g>
		<g id="OLHO DIREITO">
			<defs>
				<filter id="AVr7Y0MduvitsZr0xs02V0DVfTftlcze" x="560.744" y="593.309" width="59.64" height="35.58" filterUnits="userSpaceOnUse">
					<feGaussianBlur xmlns="http://www.w3.org/2000/svg" stdDeviation="3.177270706500881" />
				</filter>
			</defs>
			<g filter="url(#AVr7Y0MduvitsZr0xs02V0DVfTftlcze)">
				<path d=" M 606.984 606.709 C 601.538 615.178 590.631 617.548 574.144 613.699" id="Path" fill="none" vector-effect="non-scaling-stroke" stroke-width="4" stroke="rgb(248,206,174)" stroke-linejoin="miter" stroke-linecap="round" stroke-miterlimit="3" />
			</g>
			<defs>
				<linearGradient id="_lgradient_69" x1="0.5" y1="1" x2="0.5000000000000001" y2="0">
					<stop offset="40.43478260869565%" style="stop-color:#ECECEC" />
					<stop offset="67.82608695652173%" style="stop-color:#A8A8A8" />
				</linearGradient>
			</defs>
			<path d="M 578.651 592.166 L 589.064 592.166 C 597.851 592.166 604.984 596.552 604.984 601.955 L 604.984 601.955 C 604.984 607.751 597.332 612.456 587.907 612.456 L 571.126 612.456 C 567.771 612.456 565.047 609.733 565.047 606.378 L 565.047 605.77 C 565.047 598.262 571.143 592.166 578.651 592.166 Z" style="stroke:none;fill:url(#_lgradient_69);stroke-miterlimit:10;" />
			<clipPath id="_clipPath_qGczxNwtsM8QF5KIcVwNqprRNa55YTuC">
				<path d="M 578.651 592.166 L 589.064 592.166 C 597.851 592.166 604.984 596.552 604.984 601.955 L 604.984 601.955 C 604.984 607.751 597.332 612.456 587.907 612.456 L 571.126 612.456 C 567.771 612.456 565.047 609.733 565.047 606.378 L 565.047 605.77 C 565.047 598.262 571.143 592.166 578.651 592.166 Z" style="stroke:none;fill:url(#_lgradient_69);stroke-miterlimit:10;" />
			</clipPath>
			<g clip-path="url(#_clipPath_qGczxNwtsM8QF5KIcVwNqprRNa55YTuC)">
				<defs>
					<filter id="iMXUgz55trrW2jRjO0cakN1qdtYsNQlr" x="568.071" y="580.599" width="33.89" height="33.89" filterUnits="userSpaceOnUse">
						<feGaussianBlur xmlns="http://www.w3.org/2000/svg" stdDeviation="0.42936090628390283" />
					</filter>
					<linearGradient id="_lgradient_70" x1="0.5" y1="1" x2="0.5000000000000001" y2="0">
						<stop offset="0%" style="stop-color:#82321F" />
						<stop offset="57.391304347826086%" style="stop-color:#200C08" />
					</linearGradient>
				</defs>
				<g filter="url(#iMXUgz55trrW2jRjO0cakN1qdtYsNQlr)">
					<path d="M 585.016 584.599 L 585.016 584.599 C 592.16 584.599 597.961 590.4 597.961 597.544 L 597.961 597.544 C 597.961 604.689 592.16 610.489 585.016 610.489 L 585.016 610.489 C 577.871 610.489 572.071 604.689 572.071 597.544 L 572.071 597.544 C 572.071 590.4 577.871 584.599 585.016 584.599 Z" style="stroke:none;fill:url(#_lgradient_70);stroke-miterlimit:10;" />
					<path d="M 585.016 584.599 L 585.016 584.599 C 592.16 584.599 597.961 590.4 597.961 597.544 L 597.961 597.544 C 597.961 604.689 592.16 610.489 585.016 610.489 L 585.016 610.489 C 577.871 610.489 572.071 604.689 572.071 597.544 L 572.071 597.544 C 572.071 590.4 577.871 584.599 585.016 584.599 Z" style="fill:none;stroke:#000000;stroke-width:2;stroke-linecap:square;stroke-miterlimit:3;" />
					<clipPath id="_clipPath_abJdlW2gaHdGz38B3lH1erOXGTztldpM">
						<path d="M 585.016 584.599 L 585.016 584.599 C 592.16 584.599 597.961 590.4 597.961 597.544 L 597.961 597.544 C 597.961 604.689 592.16 610.489 585.016 610.489 L 585.016 610.489 C 577.871 610.489 572.071 604.689 572.071 597.544 L 572.071 597.544 C 572.071 590.4 577.871 584.599 585.016 584.599 Z" style="stroke:none;fill:url(#_lgradient_70);stroke-miterlimit:10;" />
						<path d="M 585.016 584.599 L 585.016 584.599 C 592.16 584.599 597.961 590.4 597.961 597.544 L 597.961 597.544 C 597.961 604.689 592.16 610.489 585.016 610.489 L 585.016 610.489 C 577.871 610.489 572.071 604.689 572.071 597.544 L 572.071 597.544 C 572.071 590.4 577.871 584.599 585.016 584.599 Z" style="fill:none;stroke:#000000;stroke-width:2;stroke-linecap:square;stroke-miterlimit:3;" />
					</clipPath>
					<g clip-path="url(#_clipPath_abJdlW2gaHdGz38B3lH1erOXGTztldpM)">
						<defs>
							<filter id="JXQ7Llx5nwer4Nrau6RCUKawHvVK9L0j" x="577.816" y="590.344" width="14.4" height="14.4" filterUnits="userSpaceOnUse">
								<feGaussianBlur xmlns="http://www.w3.org/2000/svg" stdDeviation="0" />
							</filter>
						</defs>
						<g filter="url(#JXQ7Llx5nwer4Nrau6RCUKawHvVK9L0j)">
							<path d="M 585.016 591.344 L 585.016 591.344 C 588.438 591.344 591.216 594.122 591.216 597.544 L 591.216 597.544 C 591.216 600.966 588.438 603.744 585.016 603.744 L 585.016 603.744 C 581.594 603.744 578.816 600.966 578.816 597.544 L 578.816 597.544 C 578.816 594.122 581.594 591.344 585.016 591.344 Z" style="stroke:none;fill:#000000;stroke-linecap:square;stroke-miterlimit:3;" />
						</g>
						<defs>
							<filter id="KOFdivFlwbrfzAUQyGTA6ih9BZ9WIwu4" x="571.194" y="583.904" width="15.243" height="15.243" filterUnits="userSpaceOnUse">
								<feGaussianBlur xmlns="http://www.w3.org/2000/svg" stdDeviation="0" />
							</filter>
						</defs>
						<g filter="url(#KOFdivFlwbrfzAUQyGTA6ih9BZ9WIwu4)" style="mix-blend-mode:normal;" opacity="0.29">
							<path d="M 578.816 584.904 L 578.816 584.904 C 582.47 584.904 585.437 587.871 585.437 591.525 L 585.437 591.525 C 585.437 595.18 582.47 598.147 578.816 598.147 L 578.816 598.147 C 575.161 598.147 572.194 595.18 572.194 591.525 L 572.194 591.525 C 572.194 587.871 575.161 584.904 578.816 584.904 Z" style="stroke:none;fill:#FFFFFF;stroke-miterlimit:10;" />
						</g>
						<defs>
							<filter id="Wh4j2wErUPeoY7FDIoFP3PQDEzxUJDJc" x="585.89" y="597.147" width="6.82" height="6.82" filterUnits="userSpaceOnUse">
								<feGaussianBlur xmlns="http://www.w3.org/2000/svg" stdDeviation="0" />
							</filter>
						</defs>
						<g filter="url(#Wh4j2wErUPeoY7FDIoFP3PQDEzxUJDJc)" style="mix-blend-mode:normal;" opacity="0.88">
							<path d="M 589.3 598.147 L 589.3 598.147 C 590.631 598.147 591.711 599.227 591.711 600.557 L 591.711 600.557 C 591.711 601.887 590.631 602.967 589.3 602.967 L 589.3 602.967 C 587.97 602.967 586.89 601.887 586.89 600.557 L 586.89 600.557 C 586.89 599.227 587.97 598.147 589.3 598.147 Z" style="stroke:none;fill:#FFFFFF;stroke-miterlimit:10;" />
						</g>
						<g style="mix-blend-mode:normal;" opacity="0.5">
							<path d="M 582.39 605.124 L 582.39 605.124 C 583.154 605.367 583.577 606.185 583.334 606.949 L 582.651 609.099 C 582.408 609.863 581.59 610.286 580.826 610.043 L 580.826 610.043 C 580.061 609.8 579.638 608.982 579.881 608.218 L 580.565 606.068 C 580.808 605.304 581.626 604.881 582.39 605.124 Z" style="stroke:none;fill:#B54E37;stroke-miterlimit:10;" />
						</g>
						<g style="mix-blend-mode:normal;" opacity="0.5">
							<path d="M 584.898 606.979 L 584.898 606.979 C 585.366 607.037 585.7 607.463 585.642 607.932 L 585.223 611.359 C 585.165 611.827 584.739 612.161 584.271 612.103 L 584.271 612.103 C 583.802 612.046 583.469 611.619 583.526 611.151 L 583.946 607.724 C 584.003 607.256 584.43 606.922 584.898 606.979 Z" style="stroke:none;fill:#B54E37;stroke-miterlimit:10;" />
						</g>
						<g style="mix-blend-mode:normal;" opacity="0.5">
							<path d="M 589.349 606.16 L 589.349 606.16 C 589.612 606.048 589.916 606.17 590.028 606.433 L 591.651 610.227 C 591.763 610.49 591.641 610.794 591.378 610.906 L 591.378 610.906 C 591.115 611.019 590.811 610.897 590.699 610.634 L 589.076 606.84 C 588.964 606.577 589.086 606.272 589.349 606.16 Z" style="stroke:none;fill:#B54E37;stroke-miterlimit:10;" />
						</g>
						<g style="mix-blend-mode:normal;" opacity="0.5">
							<path d="M 591.993 603.991 L 591.993 603.991 C 592.893 603.226 594.244 603.334 595.009 604.234 L 595.581 604.906 C 596.347 605.805 596.238 607.157 595.338 607.922 L 595.338 607.922 C 594.439 608.688 593.087 608.579 592.322 607.679 L 591.75 607.007 C 590.985 606.108 591.094 604.756 591.993 603.991 Z" style="stroke:none;fill:#B54E37;stroke-miterlimit:10;" />
						</g>
					</g>
				</g>
			</g>
			<path d=" M 604.995 601.76 C 604.993 602.171 604.986 602.584 604.984 603.006 C 604.471 601.102 603.71 597.38 596.956 593.712 C 593.526 592.172 587.225 592.239 583.255 592.152 C 575.564 592.184 570.472 593.891 568.008 597.304 C 568.128 597.025 568.275 596.756 568.461 596.504 C 571.278 591.321 583.48 589.919 597.395 592.355 C 604.63 596.299 604.991 598.879 604.995 601.76 Z " fill-rule="evenodd" id="Compound Shape" fill="rgb(0,0,0)" />
			<path d=" M 568.265 596.705 C 570.712 593.292 575.77 591.585 583.409 591.554 C 587.351 591.641 593.61 591.573 597.016 593.114 C 603.724 596.781 604.48 600.504 604.989 602.407 C 605 599.157 605.354 596.47 597.4 592.134 C 583.115 589.633 570.636 591.177 568.265 596.705 Z " id="Path" fill="rgb(0,0,0)" />
			<defs>
				<filter id="q57IDrF5bGUrjZfPZLfi4eX00GmQWkQU" x="557.406" y="583.595" width="55.103" height="33.712" filterUnits="userSpaceOnUse">
					<feGaussianBlur xmlns="http://www.w3.org/2000/svg" stdDeviation="2.146804531419514" />
				</filter>
			</defs>
			<g filter="url(#q57IDrF5bGUrjZfPZLfi4eX00GmQWkQU)">
				<path d=" M 565.409 609.308 C 565.272 599.596 569.816 593.963 579.033 592.404 C 589.61 590.614 598.735 591.273 604.508 599.784" id="Path" fill="none" vector-effect="non-scaling-stroke" stroke-width="2" stroke="rgb(65,35,28)" stroke-linejoin="miter" stroke-linecap="round" stroke-miterlimit="3" />
			</g>
		</g>
		<g id="OLHO ESQUERDO">
			<defs>
				<filter id="8B8RoOWtqbdNV3aSQwwrZ831482SAhVd" x="482.416" y="593.309" width="59.64" height="35.58" filterUnits="userSpaceOnUse">
					<feGaussianBlur xmlns="http://www.w3.org/2000/svg" stdDeviation="3.177270706500881" />
				</filter>
			</defs>
			<g filter="url(#8B8RoOWtqbdNV3aSQwwrZ831482SAhVd)">
				<path d=" M 495.816 606.709 C 501.262 615.178 512.169 617.548 528.656 613.699" id="Path" fill="none" vector-effect="non-scaling-stroke" stroke-width="4" stroke="rgb(248,206,174)" stroke-linejoin="miter" stroke-linecap="round" stroke-miterlimit="3" />
			</g>
			<defs>
				<linearGradient id="_lgradient_71" x1="0.5" y1="1" x2="0.5000000000000001" y2="0">
					<stop offset="40.43478260869565%" style="stop-color:#ECECEC" />
					<stop offset="67.82608695652173%" style="stop-color:#A8A8A8" />
				</linearGradient>
			</defs>
			<path d="M 524.149 592.166 L 513.736 592.166 C 504.949 592.166 497.816 596.552 497.816 601.955 L 497.816 601.955 C 497.816 607.751 505.468 612.456 514.893 612.456 L 531.674 612.456 C 535.029 612.456 537.753 609.733 537.753 606.378 L 537.753 605.77 C 537.753 598.262 531.657 592.166 524.149 592.166 Z" style="stroke:none;fill:url(#_lgradient_71);stroke-linecap:square;stroke-miterlimit:3;" />
			<clipPath id="_clipPath_z6wzgUKYI13Sv172YgyzBbj29Qj4rydJ">
				<path d="M 524.149 592.166 L 513.736 592.166 C 504.949 592.166 497.816 596.552 497.816 601.955 L 497.816 601.955 C 497.816 607.751 505.468 612.456 514.893 612.456 L 531.674 612.456 C 535.029 612.456 537.753 609.733 537.753 606.378 L 537.753 605.77 C 537.753 598.262 531.657 592.166 524.149 592.166 Z" style="stroke:none;fill:url(#_lgradient_71);stroke-linecap:square;stroke-miterlimit:3;" />
			</clipPath>
			<g clip-path="url(#_clipPath_z6wzgUKYI13Sv172YgyzBbj29Qj4rydJ)">
				<defs>
					<filter id="LrPuFTw0V3EVdh6R3zdqxGV05DXFscK3" x="500.839" y="580.599" width="33.89" height="33.89" filterUnits="userSpaceOnUse">
						<feGaussianBlur xmlns="http://www.w3.org/2000/svg" stdDeviation="0.42936090628390283" />
					</filter>
					<linearGradient id="_lgradient_72" x1="0.5" y1="1" x2="0.5000000000000001" y2="0">
						<stop offset="0%" style="stop-color:#82321F" />
						<stop offset="57.391304347826086%" style="stop-color:#200C08" />
					</linearGradient>
				</defs>
				<g filter="url(#LrPuFTw0V3EVdh6R3zdqxGV05DXFscK3)">
					<path d="M 517.784 584.599 L 517.784 584.599 C 524.929 584.599 530.729 590.4 530.729 597.544 L 530.729 597.544 C 530.729 604.689 524.929 610.489 517.784 610.489 L 517.784 610.489 C 510.64 610.489 504.839 604.689 504.839 597.544 L 504.839 597.544 C 504.839 590.4 510.64 584.599 517.784 584.599 Z" style="stroke:none;fill:url(#_lgradient_72);stroke-linecap:square;stroke-miterlimit:3;" />
					<path d="M 517.784 584.599 L 517.784 584.599 C 524.929 584.599 530.729 590.4 530.729 597.544 L 530.729 597.544 C 530.729 604.689 524.929 610.489 517.784 610.489 L 517.784 610.489 C 510.64 610.489 504.839 604.689 504.839 597.544 L 504.839 597.544 C 504.839 590.4 510.64 584.599 517.784 584.599 Z" style="fill:none;stroke:#000000;stroke-width:2;stroke-linecap:square;stroke-miterlimit:3;" />
					<clipPath id="_clipPath_7IOjubJEv9NKNaelmOLEuUALd8GIO3Bx">
						<path d="M 517.784 584.599 L 517.784 584.599 C 524.929 584.599 530.729 590.4 530.729 597.544 L 530.729 597.544 C 530.729 604.689 524.929 610.489 517.784 610.489 L 517.784 610.489 C 510.64 610.489 504.839 604.689 504.839 597.544 L 504.839 597.544 C 504.839 590.4 510.64 584.599 517.784 584.599 Z" style="stroke:none;fill:url(#_lgradient_72);stroke-linecap:square;stroke-miterlimit:3;" />
						<path d="M 517.784 584.599 L 517.784 584.599 C 524.929 584.599 530.729 590.4 530.729 597.544 L 530.729 597.544 C 530.729 604.689 524.929 610.489 517.784 610.489 L 517.784 610.489 C 510.64 610.489 504.839 604.689 504.839 597.544 L 504.839 597.544 C 504.839 590.4 510.64 584.599 517.784 584.599 Z" style="fill:none;stroke:#000000;stroke-width:2;stroke-linecap:square;stroke-miterlimit:3;" />
					</clipPath>
					<g clip-path="url(#_clipPath_7IOjubJEv9NKNaelmOLEuUALd8GIO3Bx)">
						<defs>
							<filter id="h14o0XHFIxETBldu5UtshseCge29wfMP" x="510.584" y="590.344" width="14.4" height="14.4" filterUnits="userSpaceOnUse">
								<feGaussianBlur xmlns="http://www.w3.org/2000/svg" stdDeviation="0" />
							</filter>
						</defs>
						<g filter="url(#h14o0XHFIxETBldu5UtshseCge29wfMP)">
							<path d="M 517.784 591.344 L 517.784 591.344 C 521.206 591.344 523.984 594.122 523.984 597.544 L 523.984 597.544 C 523.984 600.966 521.206 603.744 517.784 603.744 L 517.784 603.744 C 514.362 603.744 511.584 600.966 511.584 597.544 L 511.584 597.544 C 511.584 594.122 514.362 591.344 517.784 591.344 Z" style="stroke:none;fill:#000000;stroke-linecap:square;stroke-miterlimit:3;" />
						</g>
						<defs>
							<filter id="o1XjtoNb8KiGp9vMvwlNz2PTWVcA9pUA" x="503.963" y="583.904" width="15.243" height="15.243" filterUnits="userSpaceOnUse">
								<feGaussianBlur xmlns="http://www.w3.org/2000/svg" stdDeviation="0" />
							</filter>
						</defs>
						<g filter="url(#o1XjtoNb8KiGp9vMvwlNz2PTWVcA9pUA)" style="mix-blend-mode:normal;" opacity="0.29">
							<path d="M 511.584 584.904 L 511.584 584.904 C 515.239 584.904 518.206 587.871 518.206 591.525 L 518.206 591.525 C 518.206 595.18 515.239 598.147 511.584 598.147 L 511.584 598.147 C 507.93 598.147 504.963 595.18 504.963 591.525 L 504.963 591.525 C 504.963 587.871 507.93 584.904 511.584 584.904 Z" style="stroke:none;fill:#FFFFFF;stroke-miterlimit:10;" />
						</g>
						<defs>
							<filter id="5GGk8w27lkEDq8sVajKNTUDvDsgR1oWr" x="518.659" y="597.147" width="6.82" height="6.82" filterUnits="userSpaceOnUse">
								<feGaussianBlur xmlns="http://www.w3.org/2000/svg" stdDeviation="0" />
							</filter>
						</defs>
						<g filter="url(#5GGk8w27lkEDq8sVajKNTUDvDsgR1oWr)" style="mix-blend-mode:normal;" opacity="0.88">
							<path d="M 522.069 598.147 L 522.069 598.147 C 523.399 598.147 524.479 599.227 524.479 600.557 L 524.479 600.557 C 524.479 601.887 523.399 602.967 522.069 602.967 L 522.069 602.967 C 520.739 602.967 519.659 601.887 519.659 600.557 L 519.659 600.557 C 519.659 599.227 520.739 598.147 522.069 598.147 Z" style="stroke:none;fill:#FFFFFF;stroke-miterlimit:10;" />
						</g>
						<defs>
							<filter id="JqIbZad7iM8qTd7MxLX4I3JckC4QfVfF" x="511.081" y="603.555" width="6.59" height="8.056" filterUnits="userSpaceOnUse">
								<feGaussianBlur xmlns="http://www.w3.org/2000/svg" stdDeviation="0.21468045314195142" />
							</filter>
						</defs>
						<g filter="url(#JqIbZad7iM8qTd7MxLX4I3JckC4QfVfF)" style="mix-blend-mode:normal;" opacity="0.5">
							<path d="M 515.159 605.124 L 515.159 605.124 C 515.923 605.367 516.346 606.185 516.103 606.949 L 515.419 609.099 C 515.176 609.863 514.358 610.286 513.594 610.043 L 513.594 610.043 C 512.83 609.8 512.407 608.982 512.65 608.218 L 513.334 606.068 C 513.577 605.304 514.394 604.881 515.159 605.124 Z" style="stroke:none;fill:#B54E37;stroke-miterlimit:10;" />
						</g>
						<defs>
							<filter id="YlfVQ1sgZ3MWUBojTdJPcSg302YcKi5y" x="514.788" y="605.473" width="5.129" height="8.137" filterUnits="userSpaceOnUse">
								<feGaussianBlur xmlns="http://www.w3.org/2000/svg" stdDeviation="0.21468045314195142" />
							</filter>
						</defs>
						<g filter="url(#YlfVQ1sgZ3MWUBojTdJPcSg302YcKi5y)" style="mix-blend-mode:normal;" opacity="0.5">
							<path d="M 517.667 606.979 L 517.667 606.979 C 518.135 607.037 518.468 607.463 518.411 607.932 L 517.991 611.359 C 517.934 611.827 517.507 612.161 517.039 612.103 L 517.039 612.103 C 516.571 612.046 516.238 611.619 516.295 611.151 L 516.715 607.724 C 516.772 607.256 517.199 606.922 517.667 606.979 Z" style="stroke:none;fill:#B54E37;stroke-miterlimit:10;" />
						</g>
						<defs>
							<filter id="Au9NfjqjU34RlyTD6pSr9xSEo12XM5NR" x="520.303" y="604.618" width="5.658" height="7.83" filterUnits="userSpaceOnUse">
								<feGaussianBlur xmlns="http://www.w3.org/2000/svg" stdDeviation="0.21468045314195142" />
							</filter>
						</defs>
						<g filter="url(#Au9NfjqjU34RlyTD6pSr9xSEo12XM5NR)" style="mix-blend-mode:normal;" opacity="0.5">
							<path d="M 522.117 606.16 L 522.117 606.16 C 522.38 606.048 522.685 606.17 522.797 606.433 L 524.419 610.227 C 524.532 610.49 524.409 610.794 524.147 610.906 L 524.147 610.906 C 523.884 611.019 523.58 610.897 523.467 610.634 L 521.845 606.84 C 521.733 606.577 521.855 606.272 522.117 606.16 Z" style="stroke:none;fill:#B54E37;stroke-miterlimit:10;" />
						</g>
						<defs>
							<filter id="Q9HWvSIjF2Y4CLNFDe32H6Fw6CvPXnHy" x="521.632" y="601.104" width="9.605" height="9.705" filterUnits="userSpaceOnUse">
								<feGaussianBlur xmlns="http://www.w3.org/2000/svg" stdDeviation="0.21468045314195142" />
							</filter>
						</defs>
						<g opacity="0.5" filter="url(#Q9HWvSIjF2Y4CLNFDe32H6Fw6CvPXnHy)">
							<rect x="524.295" y="603.376" width="4.28" height="5.162" transform="matrix(0.762,-0.648,0.648,0.762,-267.19,485.638)" id="Rectangle" fill="rgb(181,78,55)" />
						</g>
					</g>
				</g>
			</g>
			<path d=" M 497.805 601.76 C 497.807 602.171 497.814 602.584 497.816 603.006 C 498.329 601.102 499.09 597.38 505.844 593.712 C 509.274 592.172 515.575 592.239 519.545 592.152 C 527.236 592.184 532.328 593.891 534.792 597.304 C 534.672 597.025 534.525 596.756 534.339 596.504 C 531.522 591.321 519.32 589.919 505.405 592.355 C 498.17 596.299 497.809 598.879 497.805 601.76 Z " fill-rule="evenodd" id="Compound Shape" fill="rgb(0,0,0)" />
			<path d=" M 534.535 596.705 C 532.088 593.292 527.03 591.585 519.391 591.554 C 515.449 591.641 509.19 591.573 505.784 593.114 C 499.076 596.781 498.32 600.504 497.811 602.407 C 497.8 599.157 497.446 596.47 505.4 592.134 C 519.685 589.633 532.164 591.177 534.535 596.705 Z " id="Path" fill="rgb(0,0,0)" />
			<defs>
				<filter id="MTVfRB1UljjTxOnxOlRpfh6qU1hUk3ni" x="490.292" y="583.595" width="55.103" height="33.712" filterUnits="userSpaceOnUse">
					<feGaussianBlur xmlns="http://www.w3.org/2000/svg" stdDeviation="2.146804531419514" />
				</filter>
			</defs>
			<g filter="url(#MTVfRB1UljjTxOnxOlRpfh6qU1hUk3ni)">
				<path d=" M 537.391 609.308 C 537.528 599.596 532.984 593.963 523.767 592.404 C 513.19 590.614 504.065 591.273 498.292 599.784" id="Path" fill="none" vector-effect="non-scaling-stroke" stroke-width="2" stroke="rgb(65,35,28)" stroke-linejoin="miter" stroke-linecap="round" stroke-miterlimit="3" />
			</g>
		</g>
		<defs>
			<filter id="6XyyjWWAIgN8hGF2lSWBgnkWJm4TNCI0" x="476.4" y="476.637" width="148.6" height="225.71" filterUnits="userSpaceOnUse">
				<feGaussianBlur xmlns="http://www.w3.org/2000/svg" stdDeviation="0" />
			</filter>
		</defs>
		<g filter="url(#6XyyjWWAIgN8hGF2lSWBgnkWJm4TNCI0)" style="mix-blend-mode:multiply;">
			<clipPath id="_clipPath_8PhSsQe9OeOgGtR0rYi6JxdOXVh18lSB">
				<path d=" M 482.989 515.623 Q 475.139 545.087 476.641 573.076 Q 481.721 585.013 479.815 595.647 Q 477.909 606.282 485.105 627.452 C 492.301 648.622 485.695 655.671 502.033 672.594 C 518.37 689.517 518.893 687.421 523.192 694.139 C 527.492 700.857 540.931 702.248 550.7 702.346 L 550.7 476.637 L 550.7 476.637 Q 510.288 481.21 482.989 515.623 Z  M 618.411 515.623 Q 626.261 545.087 624.759 573.076 Q 619.679 585.013 621.585 595.647 Q 623.491 606.282 616.295 627.452 C 609.099 648.622 615.705 655.671 599.367 672.594 C 583.03 689.517 582.507 687.421 578.208 694.139 C 573.908 700.857 560.469 702.248 550.7 702.346 L 550.7 476.637 Q 591.112 481.21 618.411 515.623 Z " fill-rule="evenodd" id="PROFUNCIDADE" fill="rgb(255,255,255)" />
			</clipPath>
			<g clip-path="url(#_clipPath_8PhSsQe9OeOgGtR0rYi6JxdOXVh18lSB)">
				<defs>
					<filter id="N2DBi54Onbj18s2gTWS228e6DnWry0MB" x="455.107" y="439.45" width="179.495" height="316.404" filterUnits="userSpaceOnUse">
						<feGaussianBlur xmlns="http://www.w3.org/2000/svg" stdDeviation="9.574748210131034" />
					</filter>
				</defs>
				<g opacity="0.6" filter="url(#N2DBi54Onbj18s2gTWS228e6DnWry0MB)">
					<path d=" M 612.302 466.604 Q 531.977 512.228 525.184 529.701 C 518.39 547.174 515.567 565.132 518.81 572.17 C 522.054 579.208 512.285 604.447 512.132 612.213 C 511.98 619.978 518.619 615.749 521.481 640.121 C 524.343 664.493 523.427 679.539 533.502 688.657 Q 543.576 697.775 554.871 733.553 L 477.407 683.804 L 486.756 479.951 L 592.268 461.75 L 612.302 466.604 Z " id="Path" fill="rgb(157,130,169)" />
				</g>
				<defs>
					<filter id="ERxwwyTONrkOTFAHaGcMvpOkw4C2Va3n" x="444.136" y="461.533" width="128.856" height="251.813" filterUnits="userSpaceOnUse">
						<feGaussianBlur xmlns="http://www.w3.org/2000/svg" stdDeviation="4.722969969122931" />
					</filter>
				</defs>
				<g opacity="0.74" filter="url(#ERxwwyTONrkOTFAHaGcMvpOkw4C2Va3n)">
					<path d=" M 561.993 476.637 Q 498.364 515.213 492.982 529.986 C 487.601 544.76 485.364 559.944 487.934 565.895 C 490.503 571.845 482.765 593.185 482.644 599.751 C 482.523 606.317 487.783 602.741 490.05 623.348 C 492.317 643.955 491.591 656.677 499.571 664.386 Q 507.552 672.095 516.499 702.346 L 455.136 660.282 L 462.542 487.922 L 546.123 472.533 L 561.993 476.637 Z " id="Path" fill="rgb(255,255,255)" />
				</g>
				<defs>
					<filter id="QhoQ4lhiElaHklhj4KBlTNg0c2jyZp5j" x="509.8" y="450.233" width="151.456" height="274.413" filterUnits="userSpaceOnUse">
						<feGaussianBlur xmlns="http://www.w3.org/2000/svg" stdDeviation="9.574748210131034" />
					</filter>
				</defs>
				<g filter="url(#QhoQ4lhiElaHklhj4KBlTNg0c2jyZp5j)">
					<path d=" M 532.1 476.637 Q 595.729 515.213 601.11 529.986 C 606.492 544.76 608.729 559.944 606.159 565.895 C 603.59 571.845 611.328 593.185 611.449 599.751 C 611.57 606.317 606.31 602.741 604.043 623.348 C 601.776 643.955 602.502 656.677 594.521 664.386 Q 586.541 672.095 577.594 702.346 L 638.957 660.282 L 631.551 487.922 L 547.97 472.533 L 532.1 476.637 Z " id="Path" fill="rgb(167,167,255)" />
				</g>
			</g>
		</g>
		<g style="mix-blend-mode:overlay;">
			<clipPath id="_clipPath_6QHbXYEILGFcyJmuoJxRM8eFDeOxAx6Y">
				<path d=" M 482.989 515.623 Q 475.139 545.087 476.641 573.076 Q 481.721 585.013 479.815 595.647 Q 477.909 606.282 485.105 627.452 C 492.301 648.622 485.695 655.671 502.033 672.594 C 518.37 689.517 518.893 687.421 523.192 694.139 C 527.492 700.857 540.931 702.248 550.7 702.346 L 550.7 476.637 L 550.7 476.637 Q 510.288 481.21 482.989 515.623 Z  M 618.411 515.623 Q 626.261 545.087 624.759 573.076 Q 619.679 585.013 621.585 595.647 Q 623.491 606.282 616.295 627.452 C 609.099 648.622 615.705 655.671 599.367 672.594 C 583.03 689.517 582.507 687.421 578.208 694.139 C 573.908 700.857 560.469 702.248 550.7 702.346 L 550.7 476.637 Q 591.112 481.21 618.411 515.623 Z " fill-rule="evenodd" id="LUZ" fill="rgb(255,255,255)" />
			</clipPath>
			<g clip-path="url(#_clipPath_6QHbXYEILGFcyJmuoJxRM8eFDeOxAx6Y)">
				<defs>
					<filter id="CJYlwINtl0dryfWEPpbUHvdSt8Zg9GtF" x="455.107" y="439.45" width="179.495" height="316.404" filterUnits="userSpaceOnUse">
						<feGaussianBlur xmlns="http://www.w3.org/2000/svg" stdDeviation="9.574748210131034" />
					</filter>
				</defs>
				<g opacity="0.6" filter="url(#CJYlwINtl0dryfWEPpbUHvdSt8Zg9GtF)">
					<path d=" M 612.302 466.604 Q 531.977 512.228 525.184 529.701 C 518.39 547.174 515.567 565.132 518.81 572.17 C 522.054 579.208 512.285 604.447 512.132 612.213 C 511.98 619.978 518.619 615.749 521.481 640.121 C 524.343 664.493 523.427 679.539 533.502 688.657 Q 543.576 697.775 554.871 733.553 L 477.407 683.804 L 486.756 479.951 L 592.268 461.75 L 612.302 466.604 Z " id="Path" fill="rgb(157,130,169)" />
				</g>
				<defs>
					<filter id="ivIS8U5442QsyJeAMbELElHBuZECcRSA" x="444.136" y="461.533" width="128.856" height="251.813" filterUnits="userSpaceOnUse">
						<feGaussianBlur xmlns="http://www.w3.org/2000/svg" stdDeviation="4.722969969122931" />
					</filter>
				</defs>
				<g opacity="0.74" filter="url(#ivIS8U5442QsyJeAMbELElHBuZECcRSA)">
					<path d=" M 561.993 476.637 Q 498.364 515.213 492.982 529.986 C 487.601 544.76 485.364 559.944 487.934 565.895 C 490.503 571.845 482.765 593.185 482.644 599.751 C 482.523 606.317 487.783 602.741 490.05 623.348 C 492.317 643.955 491.591 656.677 499.571 664.386 Q 507.552 672.095 516.499 702.346 L 455.136 660.282 L 462.542 487.922 L 546.123 472.533 L 561.993 476.637 Z " id="Path" fill="rgb(255,255,255)" />
				</g>
				<defs>
					<filter id="2RrTc1nuxZJdi1eo0J2YlER2YIYyUgRc" x="524.7" y="465.133" width="121.656" height="244.613" filterUnits="userSpaceOnUse">
						<feGaussianBlur xmlns="http://www.w3.org/2000/svg" stdDeviation="3.177270706500881" />
					</filter>
				</defs>
				<g filter="url(#2RrTc1nuxZJdi1eo0J2YlER2YIYyUgRc)">
					<path d=" M 532.1 476.637 Q 595.729 515.213 601.11 529.986 C 606.492 544.76 608.729 559.944 606.159 565.895 C 603.59 571.845 611.328 593.185 611.449 599.751 C 611.57 606.317 606.31 602.741 604.043 623.348 C 601.776 643.955 602.502 656.677 594.521 664.386 Q 586.541 672.095 577.594 702.346 L 638.957 660.282 L 631.551 487.922 L 547.97 472.533 L 532.1 476.637 Z " id="Path" fill="rgb(167,167,255)" />
				</g>
			</g>
		</g>
	</g>
</svg>
